<svg width="97" height="26" viewBox="0 0 97 26" fill="none" xmlns="http://www.w3.org/2000/svg">
<path fill-rule="evenodd" clip-rule="evenodd" d="M52.0818 10.6965C48.8522 10.7083 47.625 14.3639 47.6421 16.8321C47.658 19.1808 48.8324 22.8286 52.1095 22.8429C55.2862 22.8559 56.6854 19.1275 56.6444 16.4251C56.6021 13.7565 55.1844 10.6887 52.0818 10.6965ZM60.8407 16.5981C60.8407 21.822 57.7183 25.8093 52.0857 25.8093C46.6516 25.8093 43.5371 21.9469 43.5371 16.866C43.5371 11.8475 46.805 7.69767 52.0064 7.66776C57.5688 7.63525 60.8407 11.3429 60.8407 16.5981Z" fill="#737373"/>
<path fill-rule="evenodd" clip-rule="evenodd" d="M19.1835 5.60004C17.5727 4.26706 14.7002 4.25276 12.8183 4.6312V13.0621C15.6101 13.5277 18.7061 13.1583 19.9188 10.7928C20.7559 9.15682 20.6462 6.81078 19.1835 5.60004ZM19.2152 15.7944C17.3558 16.4108 14.4595 16.5877 12.8183 16.204V25.4386H8.82568V1.72205C11.9269 1.25519 15.2755 0.989891 18.4469 1.53219C22.0811 2.15381 24.5198 4.65981 24.5145 8.39734C24.5092 11.8345 22.7 14.6422 19.2152 15.7944Z" fill="#737373"/>
<path fill-rule="evenodd" clip-rule="evenodd" d="M5.35785 8.04102V25.4386H1.36523V8.04102H5.35785Z" fill="#737373"/>
<path fill-rule="evenodd" clip-rule="evenodd" d="M5.342 4.51934C4.8659 5.11495 4.12133 5.43357 3.37677 5.45177C2.58459 5.46998 1.79242 5.14486 1.3269 4.44912C0.770125 3.61812 0.734417 2.39958 1.3626 1.59849C1.82416 1.01068 2.5555 0.712877 3.2961 0.699873C4.0605 0.685567 4.83416 0.97297 5.3301 1.54908C6.03499 2.36447 6.00854 3.68574 5.342 4.51934Z" fill="#737373"/>
<path fill-rule="evenodd" clip-rule="evenodd" d="M92.2633 14.9127C92.2633 13.7475 91.8203 12.1661 90.8178 11.3286C89.502 10.2297 87.427 10.3298 86.1005 11.3975C85.106 12.1973 84.3984 13.6226 84.4209 14.9127H92.2633ZM96.0576 17.7399H84.4209C84.4209 20.6399 86.041 22.4957 89.1912 22.696C90.8324 22.8 92.9127 22.4476 94.4865 21.8728L95.1887 24.6636C93.693 25.4829 91.1405 25.7846 89.2295 25.7807C83.9369 25.7729 80.3701 22.5854 80.3701 16.9882C80.3701 13.78 81.5207 10.8201 83.9038 9.1074C86.525 7.22172 90.8443 7.09818 93.3901 9.18802C95.4201 10.8552 96.1766 13.6733 96.0946 16.4277L96.0576 17.7399Z" fill="#737373"/>
<path fill-rule="evenodd" clip-rule="evenodd" d="M37.4904 15.1442C37.4904 12.6447 36.193 10.9879 34.0559 10.9879C32.8127 10.9879 30.1572 11.6108 30.1572 15.9244V25.4009H26.2161L26.1646 0.23822H30.1572V10.5119C31.2853 8.66654 33.1315 7.74971 35.3361 7.74971C39.6223 7.74971 41.483 10.638 41.483 14.9842V25.4386H37.4904V15.1442Z" fill="#737373"/>
<path fill-rule="evenodd" clip-rule="evenodd" d="M74.305 15.2937C74.305 12.8553 73.251 10.9879 70.8401 10.9879C69.7741 10.9879 67.4095 11.6303 67.0022 14.9725V25.4386H63.0096C62.9884 19.6529 63.0056 13.8268 62.8535 8.04101H66.4243C66.5142 8.91752 66.575 9.79404 66.6081 10.6706C67.8221 8.67824 69.8786 7.74971 72.1189 7.74971C76.0243 7.74971 78.2963 10.4131 78.2963 14.5342V25.4386H74.3037V15.2937H74.305Z" fill="#737373"/>
</svg>
