<svg width="132" height="30" viewBox="0 0 132 30" fill="none" xmlns="http://www.w3.org/2000/svg">
<path d="M47.4817 23.2854H47.4214L43.7254 7.78034H39.3777L35.6968 23.2854H35.636L32.2128 7.78034H27.638L33.3941 29.4881H37.7111L41.5131 14.65H41.589L45.391 29.4881H49.7387L55.4797 7.78034H50.9049L47.4817 23.2854ZM102.12 7.43029C96.6668 7.43029 93.4099 11.1357 93.4099 17.3538V19.9787C93.4099 26.2603 96.6512 29.8547 102.104 29.8547C107.572 29.8547 110.3 26.3558 110.3 22.4429V22.0459H106.195C106.195 24.2881 105.134 26.0373 102.18 26.0373C99.2111 26.0373 97.7571 24.1131 97.7571 19.9787V17.3538C97.7571 13.2674 99.2262 11.2157 102.15 11.2157C104.891 11.2157 106.194 13.1239 106.194 15.2712H110.299V15.0481C110.3 10.8176 107.24 7.43029 102.12 7.43029ZM62.4024 7.78034L55.7374 29.4881H60.0243L61.5215 24.0175H68.0628L69.5366 29.4881H74.1265L67.4771 7.78034H62.4024ZM62.4362 20.6782L64.796 12.0583H64.8413L67.1632 20.6782H62.4362ZM127.598 7.78034V16.4958H119.146V7.78034H114.859V29.4881H119.146V20.2327H127.598V29.4886H131.9V7.78034H127.598ZM74.0511 11.5332H80.2005V29.4881H84.4724V11.5332H90.6374V7.78034H74.0511V11.5332ZM19.6011 15.9921C19.5673 12.2467 22.514 10.4447 22.6486 10.3577C20.9757 7.7718 18.3918 7.48632 17.4818 7.41482C15.1589 7.23553 13.1898 8.77766 12.0901 8.77766C10.9749 8.77766 9.25523 7.45377 7.43165 7.48952C5.03798 7.52741 2.8314 8.95055 1.59767 11.2024C-0.889023 15.7354 0.962615 22.4487 3.38435 26.1242C4.56923 27.9225 5.98173 29.9465 7.83805 29.8723C9.62472 29.7987 10.2998 28.6584 12.4596 28.6584C14.6179 28.6584 15.2269 29.8723 17.116 29.8344C19.0383 29.7992 20.257 28.0031 21.4325 26.1941C22.7941 24.1099 23.3532 22.0918 23.3865 21.9824C23.3434 21.9674 19.6375 20.4744 19.6011 15.9921ZM16.048 4.98743C17.0344 3.73718 17.6986 1.99281 17.5156 0.26178C16.0958 0.319943 14.3798 1.25483 13.3613 2.50347C12.4497 3.61178 11.6484 5.3855 11.8656 7.08505C13.4486 7.21258 15.0627 6.23928 16.048 4.98743Z" fill="#737373"/>
</svg>
