<svg width="22" height="20" viewBox="0 0 22 20" fill="none" xmlns="http://www.w3.org/2000/svg">
<path d="M0.6875 12.3035C0.869836 12.3035 1.0447 12.3756 1.17364 12.5041C1.30257 12.6325 1.375 12.8067 1.375 12.9883V16.4123C1.375 16.7755 1.51987 17.1239 1.77773 17.3807C2.03559 17.6376 2.38533 17.7819 2.75 17.7819H19.25C19.6147 17.7819 19.9644 17.6376 20.2223 17.3807C20.4801 17.1239 20.625 16.7755 20.625 16.4123V12.9883C20.625 12.8067 20.6974 12.6325 20.8264 12.5041C20.9553 12.3756 21.1302 12.3035 21.3125 12.3035C21.4948 12.3035 21.6697 12.3756 21.7986 12.5041C21.9276 12.6325 22 12.8067 22 12.9883V16.4123C22 17.1388 21.7103 17.8355 21.1945 18.3492C20.6788 18.8629 19.9793 19.1515 19.25 19.1515H2.75C2.02065 19.1515 1.32118 18.8629 0.805456 18.3492C0.289731 17.8355 0 17.1388 0 16.4123V12.9883C0 12.8067 0.0724328 12.6325 0.201364 12.5041C0.330295 12.3756 0.505164 12.3035 0.6875 12.3035V12.3035Z" fill="#006AFF"/>
<path d="M10.5131 0.314101C10.577 0.250328 10.6529 0.199731 10.7364 0.165208C10.8199 0.130685 10.9095 0.112915 10.9999 0.112915C11.0903 0.112915 11.1799 0.130685 11.2634 0.165208C11.3469 0.199731 11.4228 0.250328 11.4866 0.314101L15.6116 4.42289C15.7407 4.55148 15.8133 4.72588 15.8133 4.90773C15.8133 5.08958 15.7407 5.26398 15.6116 5.39257C15.4825 5.52116 15.3075 5.5934 15.1249 5.5934C14.9423 5.5934 14.7672 5.52116 14.6381 5.39257L11.6874 2.45204V14.4949C11.6874 14.6765 11.615 14.8507 11.486 14.9791C11.3571 15.1076 11.1822 15.1797 10.9999 15.1797C10.8176 15.1797 10.6427 15.1076 10.5138 14.9791C10.3848 14.8507 10.3124 14.6765 10.3124 14.4949V2.45204L7.36164 5.39257C7.29772 5.45624 7.22184 5.50675 7.13832 5.5412C7.0548 5.57566 6.96529 5.5934 6.87489 5.5934C6.78449 5.5934 6.69498 5.57566 6.61146 5.5412C6.52795 5.50675 6.45206 5.45624 6.38814 5.39257C6.32422 5.3289 6.27352 5.25331 6.23892 5.17013C6.20433 5.08694 6.18652 4.99778 6.18652 4.90773C6.18652 4.81769 6.20433 4.72853 6.23892 4.64534C6.27352 4.56215 6.32422 4.48656 6.38814 4.42289L10.5131 0.314101Z" fill="#006AFF"/>
</svg>
