<svg width="19" height="19" viewBox="0 0 19 19" fill="none" xmlns="http://www.w3.org/2000/svg">
<path fill-rule="evenodd" clip-rule="evenodd" d="M5.3875 0.342382C6.365 0.297558 6.67667 0.287598 9.16667 0.287598C11.6567 0.287598 11.9683 0.298388 12.945 0.342382C13.9217 0.386375 14.5883 0.541596 15.1717 0.766542C15.7825 0.996468 16.3367 1.35588 16.795 1.82072C17.2617 2.27642 17.6217 2.82758 17.8517 3.43684C18.0783 4.01788 18.2333 4.68193 18.2783 5.6531C18.3233 6.62842 18.3333 6.93886 18.3333 9.41825C18.3333 11.8985 18.3225 12.2089 18.2783 13.1826C18.2342 14.1537 18.0783 14.8178 17.8517 15.3988C17.6217 16.0082 17.2611 16.5602 16.795 17.0166C16.3367 17.4814 15.7825 17.84 15.1717 18.0691C14.5883 18.2949 13.9217 18.4493 12.9467 18.4941C11.9683 18.5389 11.6567 18.5489 9.16667 18.5489C6.67667 18.5489 6.365 18.5381 5.3875 18.4941C4.4125 18.4501 3.74583 18.2949 3.1625 18.0691C2.55077 17.84 1.99652 17.4808 1.53833 17.0166C1.07198 16.5606 0.711096 16.0088 0.480833 15.3997C0.255 14.8186 0.1 14.1546 0.055 13.1834C0.00999998 12.2081 0 11.8976 0 9.41825C0 6.93803 0.0108333 6.62759 0.055 5.65476C0.0991666 4.68193 0.255 4.01788 0.480833 3.43684C0.711436 2.82765 1.0726 2.27585 1.53917 1.81989C1.9967 1.35547 2.55039 0.996006 3.16167 0.766542C3.745 0.541596 4.41167 0.387205 5.38667 0.342382H5.3875ZM12.8708 1.9859C11.9042 1.94191 11.6142 1.93278 9.16667 1.93278C6.71917 1.93278 6.42917 1.94191 5.4625 1.9859C4.56833 2.02657 4.08333 2.17515 3.76 2.30049C3.3325 2.4665 3.02667 2.66323 2.70583 2.9828C2.4017 3.27751 2.16765 3.63629 2.02083 4.03283C1.895 4.35489 1.74583 4.83798 1.705 5.72864C1.66083 6.69151 1.65167 6.98037 1.65167 9.41825C1.65167 11.8561 1.66083 12.145 1.705 13.1079C1.74583 13.9985 1.895 14.4816 2.02083 14.8037C2.1675 15.1996 2.40167 15.559 2.70583 15.8537C3.00167 16.1567 3.3625 16.3899 3.76 16.536C4.08333 16.6614 4.56833 16.8099 5.4625 16.8506C6.42917 16.8946 6.71833 16.9037 9.16667 16.9037C11.615 16.9037 11.9042 16.8946 12.8708 16.8506C13.765 16.8099 14.25 16.6614 14.5733 16.536C15.0008 16.37 15.3067 16.1733 15.6275 15.8537C15.9317 15.559 16.1658 15.1996 16.3125 14.8037C16.4383 14.4816 16.5875 13.9985 16.6283 13.1079C16.6725 12.145 16.6817 11.8561 16.6817 9.41825C16.6817 6.98037 16.6725 6.69151 16.6283 5.72864C16.5875 4.83798 16.4383 4.35489 16.3125 4.03283C16.1458 3.60701 15.9483 3.30237 15.6275 2.9828C15.3316 2.67989 14.9714 2.44676 14.5733 2.30049C14.25 2.17515 13.765 2.02657 12.8708 1.9859ZM7.99583 12.233C8.64972 12.5041 9.37781 12.5407 10.0558 12.3365C10.7337 12.1323 11.3195 11.7 11.713 11.1134C12.1065 10.5269 12.2834 9.82238 12.2134 9.12035C12.1434 8.41831 11.8308 7.76226 11.3292 7.26425C11.0094 6.9459 10.6227 6.70214 10.1969 6.55052C9.77121 6.3989 9.31702 6.34318 8.86708 6.38739C8.41713 6.43159 7.98263 6.57462 7.59484 6.80616C7.20705 7.03771 6.87562 7.35202 6.62442 7.72647C6.37322 8.10091 6.20849 8.52618 6.1421 8.97165C6.0757 9.41712 6.10929 9.87171 6.24045 10.3027C6.37161 10.7337 6.59707 11.1303 6.9006 11.4641C7.20413 11.7979 7.57819 12.0605 7.99583 12.233ZM5.835 6.09967C6.27252 5.66387 6.79193 5.31818 7.36358 5.08232C7.93523 4.84647 8.54792 4.72507 9.16667 4.72507C9.78541 4.72507 10.3981 4.84647 10.9698 5.08232C11.5414 5.31817 12.0608 5.66387 12.4983 6.09967C12.9359 6.53548 13.2829 7.05285 13.5197 7.62225C13.7565 8.19165 13.8784 8.80194 13.8784 9.41825C13.8784 10.0346 13.7565 10.6449 13.5197 11.2143C13.2829 11.7837 12.9359 12.301 12.4983 12.7368C11.6147 13.617 10.4163 14.1114 9.16667 14.1114C7.91705 14.1114 6.71861 13.617 5.835 12.7368C4.95139 11.8567 4.45498 10.663 4.45498 9.41825C4.45498 8.17354 4.95139 6.97982 5.835 6.09967ZM14.9233 5.42401C15.0318 5.32213 15.1185 5.19962 15.1786 5.06374C15.2386 4.92785 15.2707 4.78135 15.2728 4.6329C15.275 4.48445 15.2473 4.33708 15.1912 4.19951C15.1352 4.06194 15.052 3.93696 14.9466 3.83198C14.8412 3.72701 14.7158 3.64416 14.5777 3.58834C14.4395 3.53253 14.2916 3.50489 14.1426 3.50705C13.9935 3.50922 13.8464 3.54114 13.71 3.60094C13.5736 3.66074 13.4506 3.7472 13.3483 3.85519C13.1494 4.06522 13.0405 4.3442 13.0448 4.6329C13.049 4.9216 13.166 5.1973 13.371 5.40146C13.5759 5.60563 13.8527 5.72219 14.1426 5.7264C14.4324 5.7306 14.7125 5.62213 14.9233 5.42401Z" fill="#141516"/>
</svg>
