<svg width="22" height="23" viewBox="0 0 22 23" fill="none" xmlns="http://www.w3.org/2000/svg">
<path d="M11.825 9.99295C11.275 9.85599 10.725 9.58207 10.3125 9.17119C9.9 9.03423 9.7625 8.62335 9.7625 8.34943C9.7625 8.07551 9.9 7.66463 10.175 7.52767C10.5875 7.25375 11 6.97983 11.4125 7.11679C12.2375 7.11679 12.925 7.52767 13.3375 8.07551L14.575 6.43199C14.1625 6.02111 13.75 5.74719 13.3375 5.47328C12.925 5.19936 12.375 5.0624 11.825 5.0624V3.14496H10.175V5.0624C9.4875 5.19936 8.8 5.61023 8.25 6.15807C7.7 6.84287 7.2875 7.66463 7.425 8.48639C7.425 9.30815 7.7 10.1299 8.25 10.6777C8.9375 11.3625 9.9 11.7734 10.725 12.1843C11.1375 12.3213 11.6875 12.5952 12.1 12.8691C12.375 13.143 12.5125 13.5539 12.5125 13.9648C12.5125 14.3757 12.375 14.7865 12.1 15.1974C11.6875 15.6083 11.1375 15.7453 10.725 15.7453C10.175 15.7453 9.4875 15.6083 9.075 15.1974C8.6625 14.9235 8.25 14.5126 7.975 14.1017L6.6 15.6083C7.0125 16.1561 7.425 16.567 7.975 16.9779C8.6625 17.3888 9.4875 17.7997 10.3125 17.7997V19.5801H11.825V17.5257C12.65 17.3888 13.3375 16.9779 13.8875 16.4301C14.575 15.7453 14.9875 14.6496 14.9875 13.6909C14.9875 12.8691 14.7125 11.9104 14.025 11.3625C13.3375 10.6777 12.65 10.2669 11.825 9.99295ZM11 0.405762C4.95 0.405762 0 5.33632 0 11.3625C0 17.3888 4.95 22.3193 11 22.3193C17.05 22.3193 22 17.3888 22 11.3625C22 5.33632 17.05 0.405762 11 0.405762ZM11 20.8128C5.775 20.8128 1.5125 16.567 1.5125 11.3625C1.5125 6.15807 5.775 1.91232 11 1.91232C16.225 1.91232 20.4875 6.15807 20.4875 11.3625C20.4875 16.567 16.225 20.8128 11 20.8128Z" fill="#006AFF"/>
</svg>
