<svg width="22" height="17" viewBox="0 0 22 17" fill="none" xmlns="http://www.w3.org/2000/svg">
<path d="M3.23538 0.291068C3.35993 0.171921 3.52738 0.106416 3.70092 0.108958C3.87445 0.1115 4.03985 0.18188 4.16076 0.304622C4.29294 0.440518 4.36548 0.622291 4.36265 0.810546C4.35982 0.998801 4.28185 1.17837 4.14563 1.31035C2.36757 3.08374 1.37182 5.47751 1.37501 7.97091C1.37501 10.6682 2.51626 13.1026 4.3505 14.8294C4.42133 14.8939 4.47841 14.9717 4.51841 15.0582C4.55841 15.1446 4.58052 15.2381 4.58347 15.3331C4.58641 15.4282 4.57012 15.5228 4.53555 15.6115C4.50099 15.7003 4.44883 15.7814 4.38213 15.85C4.26385 15.9705 4.10257 16.0407 3.93259 16.0457C3.76261 16.0508 3.59732 15.9903 3.47188 15.8771C2.37446 14.8641 1.49998 13.6396 0.902736 12.2796C0.305488 10.9195 -0.0017795 9.45293 7.7522e-06 7.97091C7.7522e-06 4.97 1.23751 2.25373 3.23538 0.291068ZM17.8544 1.31035C17.7183 1.17819 17.6406 0.998522 17.638 0.810268C17.6355 0.622013 17.7083 0.440342 17.8406 0.304622C17.9615 0.182292 18.1266 0.112175 18.2998 0.109634C18.473 0.107093 18.6401 0.172337 18.7646 0.291068C19.7915 1.29723 20.6062 2.4939 21.1615 3.81203C21.7168 5.13016 22.0018 6.54364 22 7.97091C22 11.0884 20.6662 13.8995 18.5281 15.8771C18.4027 15.9903 18.2374 16.0508 18.0674 16.0457C17.8974 16.0407 17.7362 15.9705 17.6179 15.85C17.5514 15.7814 17.4994 15.7004 17.465 15.6118C17.4305 15.5232 17.4143 15.4287 17.4172 15.3338C17.4202 15.239 17.4422 15.1457 17.4821 15.0593C17.522 14.9729 17.5789 14.8952 17.6495 14.8307C18.5912 13.9458 19.3406 12.8814 19.8521 11.7021C20.3637 10.5229 20.6266 9.25344 20.625 7.97091C20.6282 5.4771 19.6325 3.08424 17.8544 1.31035ZM5.6815 2.6712C5.80403 2.55616 5.9679 2.49382 6.13706 2.49789C6.30622 2.50196 6.46681 2.5721 6.5835 2.69288C6.8695 2.97481 6.84063 3.43837 6.55875 3.72301C5.43672 4.86014 4.81004 6.38458 4.8125 7.97091C4.8125 9.71941 5.55913 11.2971 6.75675 12.4099C7.05925 12.6905 7.1005 13.1703 6.80488 13.4617C6.69156 13.5779 6.53726 13.6466 6.37395 13.6537C6.21064 13.6607 6.05083 13.6056 5.92763 13.4997C5.14272 12.8016 4.51544 11.9487 4.08646 10.9962C3.65748 10.0437 3.43638 9.01303 3.43751 7.97091C3.43599 6.98493 3.63363 6.00852 4.0189 5.09862C4.40417 4.18872 4.96936 3.36354 5.6815 2.6712ZM15.4412 3.72301C15.1594 3.43837 15.1305 2.97481 15.4165 2.69288C15.5332 2.5721 15.6938 2.50196 15.8629 2.49789C16.0321 2.49382 16.196 2.55616 16.3185 2.6712C17.0305 3.36368 17.5955 4.18889 17.9808 5.09876C18.366 6.00863 18.5638 6.98497 18.5625 7.97091C18.564 9.01315 18.3432 10.0441 17.9145 10.9968C17.4857 11.9495 16.8586 12.8027 16.0737 13.5011C15.95 13.6074 15.7894 13.6626 15.6255 13.655C15.4615 13.6474 15.3068 13.5777 15.1937 13.4604C14.8995 13.1703 14.9407 12.6905 15.2432 12.4099C15.858 11.8404 16.3477 11.1526 16.6821 10.3891C17.0165 9.62556 17.1885 8.80255 17.1875 7.97091C17.19 6.38458 16.5633 4.86014 15.4412 3.72301ZM11 6.27663C10.5442 6.27663 10.107 6.45513 9.78466 6.77287C9.46233 7.09061 9.28125 7.52156 9.28125 7.97091C9.28125 8.42026 9.46233 8.85121 9.78466 9.16895C10.107 9.48669 10.5442 9.6652 11 9.6652C11.4558 9.6652 11.893 9.48669 12.2153 9.16895C12.5377 8.85121 12.7187 8.42026 12.7187 7.97091C12.7187 7.52156 12.5377 7.09061 12.2153 6.77287C11.893 6.45513 11.4558 6.27663 11 6.27663Z" fill="#006AFF"/>
</svg>
