<svg width="195" height="30" viewBox="0 0 195 30" fill="none" xmlns="http://www.w3.org/2000/svg">
<path d="M9.40851 9.71455C12.1897 9.71455 14.4998 11.1443 15.5988 12.6858V10.0943H19.8379V29.3296H16.7876C16.6283 29.3303 16.4705 29.2995 16.3233 29.2391C16.1761 29.1787 16.0423 29.0899 15.9297 28.9777C15.8171 28.8656 15.7279 28.7323 15.6673 28.5856C15.6066 28.439 15.5758 28.2818 15.5764 28.1232V26.7381C14.4998 28.3019 12.1897 29.7317 9.40851 29.7317C4.11533 29.7317 0.100586 25.2189 0.100586 19.7231C0.100586 14.2273 4.11533 9.71455 9.40851 9.71455ZM10.1711 13.5571C6.73949 13.5571 4.4069 16.2603 4.4069 19.7231C4.4069 23.1859 6.71706 25.8891 10.1711 25.8891C13.6027 25.8891 15.9353 23.1859 15.9353 19.7231C15.9353 16.2603 13.6251 13.5571 10.1711 13.5571ZM24.66 10.0943H28.9215V12.7082C30.0878 10.7869 32.2858 9.71455 34.7978 9.71455C39.2836 9.71455 42.1769 12.8646 42.1769 17.7572V29.3296H39.1266C38.9673 29.3303 38.8095 29.2995 38.6623 29.2391C38.5151 29.1787 38.3813 29.0899 38.2687 28.9777C38.1561 28.8656 38.0669 28.7323 38.0063 28.5856C37.9456 28.439 37.9148 28.2818 37.9154 28.1232V18.4497C37.9154 15.4114 36.3678 13.5571 33.9007 13.5571C31.0747 13.5571 28.9215 15.7465 28.9215 19.8572V29.3296H25.8712C25.712 29.3303 25.5542 29.2995 25.4069 29.2391C25.2597 29.1787 25.1259 29.0899 25.0133 28.9777C24.9007 28.8656 24.8115 28.7323 24.7509 28.5856C24.6903 28.439 24.6594 28.2818 24.66 28.1232V10.0943ZM54.8491 9.71455C57.6303 9.71455 59.9404 11.1443 61.0394 12.6858V0.487873H65.2785V29.3519H62.2282C62.0689 29.3526 61.9111 29.3218 61.7639 29.2614C61.6167 29.201 61.4829 29.1122 61.3703 29C61.2577 28.8879 61.1685 28.7546 61.1079 28.608C61.0472 28.4613 61.0163 28.3042 61.017 28.1455V26.7604C59.9404 28.3019 57.6078 29.7317 54.8267 29.7317C49.5335 29.7317 45.5188 25.2189 45.5188 19.7231C45.5412 14.2273 49.5559 9.71455 54.8491 9.71455ZM55.6117 13.5571C52.1801 13.5571 49.8475 16.2603 49.8475 19.7231C49.8475 23.1859 52.1576 25.8891 55.6117 25.8891C59.0433 25.8891 61.3759 23.1859 61.3759 19.7231C61.3759 16.2603 59.0433 13.5571 55.6117 13.5571ZM70.1006 10.0943H74.3397V13.5124C74.7115 12.4608 75.3999 11.549 76.3111 10.9013C77.2222 10.2537 78.3117 9.90164 79.431 9.89327C79.988 9.89198 80.5438 9.94435 81.0907 10.0497V14.4061C80.4039 14.1754 79.6847 14.0547 78.96 14.0486C76.5153 14.0486 74.3172 16.0816 74.3172 19.9465V29.3296H71.2669C71.1077 29.3303 70.9499 29.2995 70.8027 29.2391C70.6554 29.1787 70.5217 29.0899 70.4091 28.9777C70.2965 28.8656 70.2073 28.7323 70.1466 28.5856C70.086 28.439 70.0551 28.2818 70.0558 28.1232V10.0943H70.1006ZM92.5742 29.7317C86.8549 29.7317 82.4589 25.3083 82.4589 19.7231C82.4589 14.138 86.8549 9.71455 92.5742 9.71455C98.2935 9.71455 102.69 14.138 102.69 19.7231C102.69 25.3083 98.2935 29.7317 92.5742 29.7317ZM92.5742 25.7998C95.9834 25.7998 98.3608 23.1413 98.3608 19.7231C98.3608 16.305 95.961 13.6465 92.5742 13.6465C89.1426 13.6465 86.7428 16.305 86.7428 19.7231C86.7428 23.1413 89.1426 25.7998 92.5742 25.7998ZM108.252 5.8943C107.498 5.88944 106.776 5.58896 106.243 5.05792C105.71 4.52688 105.408 3.80803 105.403 3.05704C105.417 2.31078 105.722 1.59913 106.254 1.07345C106.786 0.547762 107.503 0.249513 108.252 0.242126C109.004 0.242126 109.726 0.539874 110.258 1.06987C110.79 1.59986 111.089 2.31869 111.089 3.06821C111.089 3.81774 110.79 4.53657 110.258 5.06656C109.726 5.59655 109.004 5.8943 108.252 5.8943ZM106.144 10.0943H110.383V29.3296H107.355C107.196 29.3303 107.038 29.2995 106.89 29.2391C106.743 29.1787 106.609 29.0899 106.497 28.9777C106.384 28.8656 106.295 28.7323 106.234 28.5856C106.174 28.439 106.143 28.2818 106.144 28.1232V10.0943ZM123.189 9.71455C125.971 9.71455 128.281 11.1443 129.38 12.6858V0.487873H133.619V29.3519H130.568C130.409 29.3526 130.251 29.3218 130.104 29.2614C129.957 29.201 129.823 29.1122 129.711 29C129.598 28.8879 129.509 28.7546 129.448 28.608C129.388 28.4613 129.357 28.3042 129.357 28.1455V26.7604C128.281 28.3019 125.948 29.7317 123.167 29.7317C117.874 29.7317 113.859 25.2189 113.859 19.7231C113.882 14.2273 117.896 9.71455 123.189 9.71455ZM123.974 13.5571C120.543 13.5571 118.21 16.2603 118.21 19.7231C118.21 23.1859 120.52 25.8891 123.974 25.8891C127.406 25.8891 129.739 23.1859 129.739 19.7231C129.739 16.2603 127.406 13.5571 123.974 13.5571Z" fill="#737373"/>
<path d="M180.517 22.0689C180.091 22.0689 179.675 21.9431 179.321 21.7075C178.967 21.4718 178.691 21.1369 178.528 20.745C178.365 20.3531 178.322 19.9218 178.405 19.5058C178.489 19.0898 178.694 18.7076 178.995 18.4077C179.296 18.1077 179.68 17.9035 180.097 17.8207C180.515 17.738 180.948 17.7804 181.341 17.9428C181.735 18.1051 182.071 18.38 182.308 18.7327C182.544 19.0854 182.67 19.5 182.67 19.9242C182.67 20.493 182.444 21.0385 182.04 21.4408C181.636 21.843 181.088 22.0689 180.517 22.0689ZM156.81 22.0689C156.384 22.0689 155.968 21.9431 155.614 21.7075C155.26 21.4718 154.984 21.1369 154.821 20.745C154.658 20.3531 154.615 19.9218 154.698 19.5058C154.781 19.0898 154.986 18.7076 155.288 18.4077C155.589 18.1077 155.972 17.9035 156.39 17.8207C156.808 17.738 157.241 17.7804 157.634 17.9428C158.027 18.1051 158.364 18.38 158.6 18.7327C158.837 19.0854 158.963 19.5 158.963 19.9242C158.963 20.493 158.736 21.0385 158.333 21.4408C157.929 21.843 157.381 22.0689 156.81 22.0689ZM181.28 9.20073L185.586 1.80598C185.644 1.70473 185.682 1.59304 185.696 1.47733C185.711 1.36162 185.703 1.24416 185.671 1.13171C185.64 1.01926 185.587 0.914038 185.515 0.822077C185.443 0.730116 185.354 0.653234 185.252 0.595846C185.15 0.538458 185.038 0.501696 184.921 0.487672C184.805 0.473648 184.687 0.482637 184.574 0.514124C184.462 0.545611 184.356 0.598975 184.264 0.671151C184.172 0.743327 184.096 0.832891 184.039 0.9347L179.687 8.4188C176.232 6.8458 172.474 6.03787 168.675 6.0507C164.871 6.04142 161.109 6.84117 157.64 8.39646L153.289 0.91236C153.172 0.709149 152.979 0.560207 152.753 0.498107C152.526 0.436007 152.284 0.465803 152.08 0.580978C151.875 0.696152 151.725 0.887334 151.661 1.11271C151.598 1.33809 151.627 1.57932 151.741 1.78364L156.025 9.17839C152.321 11.1906 149.179 14.0912 146.884 17.6176C144.589 21.144 143.214 25.1848 142.882 29.3743H194.401C194.079 25.1878 192.71 21.1482 190.418 17.6243C188.126 14.1004 184.984 11.2045 181.28 9.20073Z" fill="#737373"/>
</svg>
