<svg width="38" height="25" viewBox="0 0 38 25" fill="none" xmlns="http://www.w3.org/2000/svg">
<g filter="url(#filter0_d_28_132)">
<path d="M8 12.3507L14.5 5.87625M24.5 9.86053L30 4.38214L24.5 9.86053ZM17.5 5.87625L21.5 9.86053L17.5 5.87625Z" stroke="#006AFF" stroke-width="1.5" stroke-linecap="round" stroke-linejoin="round"/>
<path d="M31.5 4.38214C32.3284 4.38214 33 3.7132 33 2.88803C33 2.06286 32.3284 1.39392 31.5 1.39392C30.6716 1.39392 30 2.06286 30 2.88803C30 3.7132 30.6716 4.38214 31.5 4.38214Z" stroke="#006AFF" stroke-width="1.5" stroke-linecap="round" stroke-linejoin="round"/>
<path d="M23 12.8487C23.8284 12.8487 24.5 12.1798 24.5 11.3546C24.5 10.5294 23.8284 9.86047 23 9.86047C22.1716 9.86047 21.5 10.5294 21.5 11.3546C21.5 12.1798 22.1716 12.8487 23 12.8487Z" stroke="#006AFF" stroke-width="1.5" stroke-linecap="round" stroke-linejoin="round"/>
<path d="M16 5.87621C16.8284 5.87621 17.5 5.20728 17.5 4.38211C17.5 3.55694 16.8284 2.888 16 2.888C15.1716 2.888 14.5 3.55694 14.5 4.38211C14.5 5.20728 15.1716 5.87621 16 5.87621Z" stroke="#006AFF" stroke-width="1.5" stroke-linecap="round" stroke-linejoin="round"/>
<path d="M6.5 15.3389C7.32843 15.3389 8 14.67 8 13.8448C8 13.0196 7.32843 12.3507 6.5 12.3507C5.67157 12.3507 5 13.0196 5 13.8448C5 14.67 5.67157 15.3389 6.5 15.3389Z" stroke="#006AFF" stroke-width="1.5" stroke-linecap="round" stroke-linejoin="round"/>
</g>
<defs>
<filter id="filter0_d_28_132" x="0.25" y="0.643921" width="37.5" height="23.445" filterUnits="userSpaceOnUse" color-interpolation-filters="sRGB">
<feFlood flood-opacity="0" result="BackgroundImageFix"/>
<feColorMatrix in="SourceAlpha" type="matrix" values="0 0 0 0 0 0 0 0 0 0 0 0 0 0 0 0 0 0 127 0" result="hardAlpha"/>
<feOffset dy="4"/>
<feGaussianBlur stdDeviation="2"/>
<feComposite in2="hardAlpha" operator="out"/>
<feColorMatrix type="matrix" values="0 0 0 0 0 0 0 0 0 0 0 0 0 0 0 0 0 0 0.25 0"/>
<feBlend mode="normal" in2="BackgroundImageFix" result="effect1_dropShadow_28_132"/>
<feBlend mode="normal" in="SourceGraphic" in2="effect1_dropShadow_28_132" result="shape"/>
</filter>
</defs>
</svg>
