<svg width="24" height="22" viewBox="0 0 24 22" fill="none" xmlns="http://www.w3.org/2000/svg">
<path d="M22.5 7.14099H16.5C16.1022 7.14099 15.7206 7.29841 15.4393 7.57861C15.158 7.8588 15 8.23884 15 8.6351V19.8409C15 20.2372 15.158 20.6172 15.4393 20.8974C15.7206 21.1776 16.1022 21.335 16.5 21.335H22.5C22.8978 21.335 23.2794 21.1776 23.5607 20.8974C23.842 20.6172 24 20.2372 24 19.8409V8.6351C24 8.23884 23.842 7.8588 23.5607 7.57861C23.2794 7.29841 22.8978 7.14099 22.5 7.14099ZM22.5 8.6351V16.8527H16.5V8.6351H22.5ZM16.5 19.8409V18.048H22.5V19.8409H16.5Z" fill="#006AFF"/>
<path d="M13.5 13.8644H1.5V1.91159H19.5V5.64686H21V1.91159C21 1.51533 20.842 1.13529 20.5607 0.855094C20.2794 0.574895 19.8978 0.41748 19.5 0.41748H1.5C1.10218 0.41748 0.720644 0.574895 0.43934 0.855094C0.158035 1.13529 0 1.51533 0 1.91159V13.8644C0 14.2607 0.158035 14.6407 0.43934 14.9209C0.720644 15.2011 1.10218 15.3586 1.5 15.3586H13.5V13.8644Z" fill="#006AFF"/>
<path d="M13.5 16.8527H5.25C5.05109 16.8527 4.86032 16.9314 4.71967 17.0715C4.57902 17.2116 4.5 17.4016 4.5 17.5997C4.5 17.7978 4.57902 17.9879 4.71967 18.128C4.86032 18.2681 5.05109 18.3468 5.25 18.3468H13.5V16.8527Z" fill="#006AFF"/>
</svg>
