<svg width="178" height="31" viewBox="0 0 178 31" fill="none" xmlns="http://www.w3.org/2000/svg">
<path d="M9.63701 10.0885C12.5168 10.0885 14.9175 11.5677 16.0356 13.1662V10.4878H20.434V30.4704H17.4468C16.6675 30.4704 16.0356 29.84 16.0356 29.0602V27.7947C14.9175 29.3919 12.5168 30.8699 9.63701 30.8699C4.16027 30.8699 0 26.1951 0 20.4798C0 14.7645 4.16027 10.0885 9.63701 10.0885ZM10.4372 14.0857C6.87756 14.0857 4.4779 16.8826 4.4779 20.4798C4.4779 24.0759 6.87756 26.8745 10.4372 26.8745C13.9957 26.8745 16.3965 24.0759 16.3965 20.4798C16.3965 16.8826 13.9959 14.0857 10.4372 14.0857Z" fill="#737373"/>
<path d="M25.4297 10.4885H29.8292V13.2059C31.0278 11.2083 33.3083 10.0892 35.9077 10.0892C40.5457 10.0892 43.5457 13.3663 43.5457 18.4423V30.4704H40.5574C39.7783 30.4704 39.1462 29.8389 39.1462 29.0602V19.1617C39.1462 16.0048 37.5458 14.0864 34.9883 14.0864C32.0689 14.0864 29.8295 16.3644 29.8295 20.6397V30.4704H26.8398C26.0618 30.4704 25.4297 29.8389 25.4297 29.0602V10.4885Z" fill="#737373"/>
<path d="M56.6623 10.0885C59.541 10.0885 61.9417 11.5677 63.0609 13.1662V0.497627H67.4582V30.4704H64.471C63.693 30.4704 63.0609 29.8399 63.0609 29.0602V27.7947C61.9417 29.3918 59.541 30.8699 56.6623 30.8699C51.1831 30.8699 47.0244 26.195 47.0244 20.4798C47.0244 14.7645 51.1834 10.0885 56.6623 10.0885ZM57.4627 14.0857C53.9042 14.0857 51.5045 16.8825 51.5045 20.4798C51.5045 24.0759 53.9042 26.8745 57.4627 26.8745C61.0199 26.8745 63.4196 24.0759 63.4196 20.4798C63.4196 16.8825 61.0199 14.0857 57.4627 14.0857Z" fill="#737373"/>
<path d="M72.4551 10.4885H76.8535V14.0453C77.6129 11.7674 79.8525 10.2888 82.1327 10.2888C82.6912 10.2888 83.253 10.3292 83.8525 10.4488V14.9644C83.0907 14.7244 82.453 14.6048 81.6539 14.6048C79.134 14.6048 76.8537 16.724 76.8537 20.7203V30.4704H73.8654C73.0875 30.4704 72.4553 29.8389 72.4553 29.0602V10.4885H72.4551Z" fill="#737373"/>
<path d="M95.7125 30.8699C89.7954 30.8699 85.2358 26.2731 85.2358 20.4809C85.2358 14.6858 89.7954 10.0885 95.7125 10.0885C101.632 10.0885 106.189 14.6847 106.189 20.4809C106.189 26.2731 101.632 30.8699 95.7125 30.8699ZM95.7125 26.7951C99.2316 26.7951 101.712 24.0362 101.712 20.4809C101.712 16.9247 99.2313 14.1658 95.7125 14.1658C92.1542 14.1658 89.6751 16.9247 89.6751 20.4809C89.6751 24.0362 92.1542 26.7951 95.7125 26.7951Z" fill="#737373"/>
<path d="M111.953 6.13286C110.354 6.13286 108.994 4.8154 108.994 3.17496C108.994 1.57644 110.354 0.257874 111.953 0.257874C113.592 0.257874 114.873 1.57666 114.873 3.17496C114.873 4.8154 113.592 6.13286 111.953 6.13286ZM109.756 10.4879H114.153V30.4704H111.166C110.387 30.4704 109.756 29.8375 109.756 29.0603V10.4879Z" fill="#737373"/>
<path d="M127.405 10.0885C130.284 10.0885 132.684 11.5677 133.804 13.1662V0.497627H138.203V30.4704H135.216C134.435 30.4704 133.804 29.8399 133.804 29.0602V27.7947C132.684 29.3918 130.284 30.8699 127.405 30.8699C121.928 30.8699 117.769 26.195 117.769 20.4798C117.769 14.7645 121.928 10.0885 127.405 10.0885ZM128.205 14.0857C124.648 14.0857 122.248 16.8825 122.248 20.4798C122.248 24.0759 124.648 26.8745 128.205 26.8745C131.765 26.8745 134.164 24.0759 134.164 20.4798C134.164 16.8825 131.765 14.0857 128.205 14.0857Z" fill="#737373"/>
<path d="M145.85 13.0302H141.546V10.3787H145.85V4.79143H148.665V10.3787H154.536V13.0302H148.665V24.6456C148.665 27.0964 149.751 28.0607 152.002 28.0607C152.806 28.0607 153.893 27.8996 154.536 27.6194V30.1508C153.61 30.5128 152.646 30.6736 151.56 30.6736C148.142 30.6736 145.85 28.7029 145.85 24.8849V13.0302Z" fill="#737373"/>
<path d="M177.418 10.378L168.009 30.4728H165.797L156.387 10.378H159.524L166.883 26.3328L174.241 10.378H177.418Z" fill="#737373"/>
</svg>
