<svg width="83" height="32" viewBox="0 0 83 32" fill="none" xmlns="http://www.w3.org/2000/svg">
<path d="M17.387 5.20398C18.5595 3.81985 19.1405 2.04466 19.0084 0.25C17.2114 0.420073 15.5526 1.26963 14.3836 2.61859C13.8015 3.26473 13.3553 4.0173 13.0707 4.83305C12.7862 5.6488 12.6688 6.51165 12.7253 7.37202C13.6205 7.38922 14.5075 7.20235 15.3165 6.82612C16.1254 6.44989 16.8342 5.89459 17.387 5.20398V5.20398ZM18.8979 7.69903C16.3183 7.55269 14.1441 9.14439 12.9096 9.14439C11.6751 9.14439 9.79569 7.77853 7.7689 7.81466C6.44179 7.85133 5.14775 8.22888 4.01607 8.90958C2.8844 9.59027 1.95474 10.5503 1.31999 11.6937C-1.44383 16.3911 0.582971 23.3884 3.27309 27.2132C4.58129 29.0308 6.14746 31.197 8.22953 31.1265C10.3116 31.0561 10.9565 29.8618 13.3334 29.8618C15.7103 29.8618 16.4104 31.1265 18.4741 31.0814C20.5377 31.0362 21.9749 29.2602 23.2647 27.2873C24.195 25.9397 24.9212 24.467 25.4205 22.9151C24.1815 22.3772 23.1275 21.4996 22.3854 20.388C21.6433 19.2763 21.2448 17.978 21.2379 16.6494C21.2532 15.4706 21.5698 14.3143 22.1589 13.2866C22.748 12.2588 23.5907 11.3925 24.6098 10.7668C23.9623 9.85903 23.1102 9.10974 22.1196 8.57709C21.129 8.04443 20.0266 7.74274 18.8979 7.69542V7.69903ZM35.3518 4.05311V9.21124H39.5528V12.6169H35.3518V24.8211C35.3518 26.6423 36.1809 27.5709 38.0235 27.5709C38.5288 27.562 39.0331 27.5258 39.5344 27.4625V30.8953C38.7121 31.0259 37.8798 31.0863 37.0469 31.076C32.6985 31.076 31.0218 29.4192 31.0218 25.2656V12.6982H27.7237V9.28351H30.9297V4.05672L35.3518 4.05311ZM54.2379 30.8881H49.6315L41.8928 9.28351H46.4808L51.9163 26.6423H52.0268L57.4623 9.28351H61.9581L54.2379 30.8881ZM74.469 30.8881H70.4891V22.0352H61.9397V18.1364H70.4707V9.28351H74.4506V18.1364H83V22.0352H74.469V30.8881Z" fill="#737373"/>
</svg>
