<svg width="24" height="14" viewBox="0 0 24 14" fill="none" xmlns="http://www.w3.org/2000/svg">
<path d="M8.33333 7.07753L8.33333 1.81827C8.33333 1.72409 8.3523 1.63083 8.38916 1.54382C8.42601 1.45681 8.48003 1.37775 8.54812 1.31115C8.61622 1.24456 8.69706 1.19173 8.78603 1.15569C8.87501 1.11965 8.97037 1.1011 9.06667 1.1011L22.2667 1.1011C22.363 1.1011 22.4583 1.11965 22.5473 1.15569C22.6363 1.19173 22.7171 1.24456 22.7852 1.31115C22.8533 1.37775 22.9073 1.45681 22.9442 1.54382C22.981 1.63083 23 1.72409 23 1.81827L23 12.3368C23 12.527 22.9227 12.7094 22.7852 12.8439C22.6477 12.9784 22.4612 13.054 22.2667 13.054L9.06667 13.054C8.87218 13.054 8.68565 12.9784 8.54812 12.8439C8.41059 12.7094 8.33333 12.527 8.33333 12.3368L8.33333 7.07753ZM8.33333 7.07753L2.20267 12.0738C2.09558 12.161 1.9653 12.2166 1.82708 12.2341C1.68886 12.2515 1.54842 12.23 1.42222 12.1722C1.29602 12.1144 1.18928 12.0226 1.1145 11.9076C1.03972 11.7926 1.00001 11.6591 1 11.5228L1 2.63226C1.00024 2.49607 1.04012 2.36276 1.11499 2.24792C1.18986 2.13308 1.29662 2.04147 1.42277 1.9838C1.54893 1.92612 1.68927 1.90477 1.82738 1.92223C1.96549 1.9397 2.09566 1.99526 2.20267 2.08243L8.33333 7.07753Z" stroke="#006AFF" stroke-width="1.5" stroke-linecap="round" stroke-linejoin="round"/>
</svg>
